<?xml version="1.0" encoding="UTF-8"?>
<svg id="Layer_1" data-name="Layer 1" xmlns="http://www.w3.org/2000/svg" version="1.1" viewBox="0 0 841.89 595.28">
  <defs>
    <style>
      .cls-1 {
        fill: #1a2b3d;
      }

      .cls-1, .cls-2, .cls-3 {
        stroke-width: 0px;
      }

      .cls-2 {
        fill: #f4f5f6;
      }

      .cls-3 {
        fill: #a0a6ab;
      }
    </style>
  </defs>
  <path class="cls-3" d="M639.34,220.56c0,28.14.35,56.29-.08,84.43-.68,44.5-13.67,85.15-39.57,121.51-6.51,9.14-14.08,17.46-21.06,26.17-25.74,32.17-58.66,55.45-92.27,78.06-15.08,10.15-30.44,19.89-46.25,28.89-2,1.14-3.55,1.81-5.95.39-47.63-28.2-94.04-57.96-132.05-99.01-32-34.56-54.74-73.99-63.8-120.63-2.83-14.56-4.42-29.3-4.45-44.15-.1-56.63-.03-113.25-.21-169.88-.01-4.22,1.19-5.71,5.29-6.5,34.53-6.64,68.84-14.27,102.86-23.19,30.91-8.11,61.7-16.66,91.8-27.49,2.68-.96,5.04-.97,7.77.02,60.76,21.94,123.27,37.33,186.63,49.47,11.42,2.19,11.43,2.09,11.42,13.93,0,29.32,0,58.65,0,87.97-.03,0-.06,0-.09,0ZM255.96,231.6h.15c0,22.24.06,44.48-.01,66.73-.14,45.19,14.06,85.62,40.51,121.94,18.59,25.52,40.94,47.34,66.04,66.37,20.29,15.38,41.8,28.9,63.71,41.84,7.05,4.16,12.75,4.04,19.84,0,19.84-11.34,39.17-23.41,57.62-36.89,27.47-20.07,52.36-42.73,72.83-70.14,27.16-36.37,41.87-76.76,41.42-122.4-.16-15.84-.02-31.68,0-47.52.02-35.72,0-71.44.16-107.17.02-3.78-1-5.47-4.86-5.86-3.82-.38-7.59-1.4-11.36-2.22-50.99-10.99-101.59-23.49-151.04-40.21-9.53-3.22-17.78-3.38-27.56-.19-53.57,17.5-108.14,31.36-163.38,42.53-4.12.83-4.1,2.73-4.1,5.74.04,29.15.03,58.3.03,87.45Z"/>
  <path class="cls-1" d="M255.96,231.6c0-29.15.02-58.3-.03-87.45,0-3.02-.02-4.91,4.1-5.74,55.24-11.17,109.81-25.03,163.38-42.53,9.78-3.19,18.03-3.03,27.56.19,49.44,16.72,100.05,29.22,151.04,40.21,3.77.81,7.54,1.83,11.36,2.22,3.87.39,4.88,2.08,4.86,5.86-.17,35.72-.14,71.44-.16,107.17-.01,15.84-.15,31.68,0,47.52.45,45.65-14.26,86.04-41.42,122.4-20.47,27.41-45.37,50.07-72.83,70.14-18.45,13.48-37.78,25.55-57.62,36.89-7.09,4.05-12.79,4.17-19.84,0-21.91-12.94-43.42-26.45-63.71-41.84-25.11-19.03-47.46-40.85-66.04-66.37-26.46-36.33-40.65-76.75-40.51-121.94.07-22.24.01-44.48.01-66.73h-.15ZM419.72,410.87c0-4.46,0-7.6,0-10.74-.05-48.69-.11-97.39-.14-146.08-.02-38.92-.07-77.84.1-116.76.02-4.7-1.13-5.19-5.39-3.81-7.34,2.37-14.86,4.28-22.42,5.85-4.87,1.01-6.54,2.96-6.49,8.26.3,38.08.13,76.16.24,114.24,0,3.29-.48,4.61-4.29,4.56-18.19-.23-36.39-.16-54.59-.01-3.13.03-4.31-.61-4.26-4,.17-11.45-.01-22.91,0-34.37,0-22.24,0-44.48.12-66.72.02-3.3-.14-4.92-4.34-3.63-7.04,2.18-14.37,3.4-21.48,5.39-9.03,2.52-7.9.08-7.95,10.12-.16,39.93-.12,79.86-.03,119.8.04,16.15-.09,32.33,3.26,48.25,6.29,29.92,22.77,54.47,42.17,77.07,28.26,32.92,63.4,57.6,99.74,80.7,3.04,1.93,4.93.73,7.22-.74,24.96-15.99,49.32-32.83,71.74-52.29,23.07-20.02,42.97-42.68,57.19-69.95,6.32-12.12,11.06-24.82,13.69-38.31.77-3.94-.78-4.11-3.77-3.78-8.53.94-17.07,1.84-25.61,2.6-2.48.22-3.45,1.04-4.38,3.62-5.43,15.07-12.83,29.16-22.07,42.28-22.32,31.68-52.62,54.56-83.82,76.54-5.39,3.8-8.79,3.45-14.16-.34-27.17-19.19-53.5-39.18-74.87-65.07-21.21-25.71-33.81-54.4-32.87-88.31.1-3.66.78-4.8,4.68-4.76,18.19.22,36.39.14,54.59-.03,3.24-.03,4.14.75,4.11,4.12-.18,22.91-.1,45.83-.1,68.75,0,2.18-.14,4.33,1.53,6.17,9.81,10.87,20.07,21.26,32.64,31.4ZM454.55,411.06c11.2-9.11,20.37-18.97,30.06-28.27,3.36-3.22,4.52-6.54,4.48-11.06-.2-21.91-.01-43.81-.22-65.72-.04-4.17.59-5.69,5.36-5.65,28.48.28,56.96.02,85.44.25,4.76.04,6.01-1.48,5.81-5.97-.34-7.74-.46-15.51-.07-23.25.22-4.47-1.42-5.21-5.41-5.19-28.14.15-56.29-.11-84.43.21-5.46.06-6.61-1.73-6.52-6.64.23-12.47-.03-24.94.02-37.41.01-2.55-.28-3.95-3.46-3.97-8.59-.05-17.19-.33-25.76-.9-4.1-.28-5.4.77-5.37,5.1.18,32.52.09,65.05.08,97.57,0,29.95,0,59.91,0,90.89ZM585.53,196.64h-.02c0-9.26-.12-18.52.07-27.78.07-3.11-.89-4.28-4-4.97-23.6-5.24-47.17-10.58-70.69-16.15-16.83-3.98-33.55-8.39-50.34-12.54-6-1.49-6.08-1.4-6.08,4.84,0,9.43.21,18.86.04,28.28-.06,3.28,1.24,4.1,4.21,4.78,30.12,6.81,60.17,13.87,90.29,20.7,2.76.62,3.48,1.68,3.42,4.33-.17,7.4-.07,14.81-.09,22.22,0,1.84-.36,3.72,2.39,4.12,9.13,1.32,18.25,2.73,27.37,4.17,2.66.42,3.52-.5,3.49-3.21-.13-9.59-.05-19.19-.05-28.79Z"/>
  <path class="cls-2" d="M419.72,410.87c-12.57-10.14-22.83-20.53-32.64-31.4-1.66-1.84-1.53-3.99-1.53-6.17,0-22.92-.08-45.83.1-68.75.03-3.38-.87-4.15-4.11-4.12-18.2.17-36.4.25-54.59.03-3.9-.05-4.58,1.1-4.68,4.76-.94,33.91,11.65,62.6,32.87,88.31,21.37,25.89,47.7,45.88,74.87,65.07,5.37,3.79,8.77,4.14,14.16.34,31.2-21.98,61.5-44.85,83.82-76.54,9.24-13.12,16.64-27.21,22.07-42.28.93-2.58,1.91-3.4,4.38-3.62,8.55-.76,17.08-1.66,25.61-2.6,2.99-.33,4.53-.15,3.77,3.78-2.63,13.49-7.37,26.19-13.69,38.31-14.21,27.27-34.11,49.93-57.19,69.95-22.43,19.46-46.78,36.3-71.74,52.29-2.29,1.47-4.18,2.68-7.22.74-36.34-23.1-71.48-47.77-99.74-80.7-19.4-22.6-35.88-47.15-42.17-77.07-3.35-15.92-3.22-32.11-3.26-48.25-.09-39.93-.14-79.87.03-119.8.04-10.04-1.09-7.61,7.95-10.12,7.11-1.98,14.44-3.21,21.48-5.39,4.19-1.3,4.35.33,4.34,3.63-.11,22.24-.11,44.48-.12,66.72,0,11.46.18,22.92,0,34.37-.05,3.39,1.13,4.03,4.26,4,18.2-.15,36.39-.22,54.59.01,3.81.05,4.3-1.27,4.29-4.56-.11-38.08.06-76.16-.24-114.24-.04-5.3,1.62-7.24,6.49-8.26,7.56-1.57,15.08-3.48,22.42-5.85,4.26-1.38,5.41-.89,5.39,3.81-.16,38.92-.12,77.84-.1,116.76.03,48.69.09,97.39.14,146.08,0,3.14,0,6.29,0,10.74Z"/>
  <path class="cls-2" d="M454.55,411.06c0-30.98,0-60.93,0-90.89,0-32.52.1-65.05-.08-97.57-.02-4.33,1.27-5.38,5.37-5.1,8.57.58,17.17.85,25.76.9,3.18.02,3.47,1.42,3.46,3.97-.05,12.47.2,24.94-.02,37.41-.09,4.91,1.06,6.7,6.52,6.64,28.14-.32,56.29-.06,84.43-.21,3.99-.02,5.64.72,5.41,5.19-.39,7.73-.27,15.51.07,23.25.2,4.49-1.05,6.01-5.81,5.97-28.48-.23-56.96.03-85.44-.25-4.77-.05-5.4,1.48-5.36,5.65.21,21.91.03,43.81.22,65.72.04,4.52-1.13,7.84-4.48,11.06-9.69,9.3-18.85,19.15-30.06,28.27Z"/>
  <path class="cls-2" d="M585.53,196.64c0,9.6-.08,19.19.05,28.79.04,2.71-.83,3.63-3.49,3.21-9.11-1.44-18.24-2.86-27.37-4.17-2.75-.4-2.39-2.28-2.39-4.12.01-7.41-.08-14.82.09-22.22.06-2.65-.67-3.7-3.42-4.33-30.11-6.82-60.17-13.88-90.29-20.7-2.98-.67-4.27-1.5-4.21-4.78.17-9.42-.05-18.85-.04-28.28,0-6.24.08-6.33,6.08-4.84,16.79,4.15,33.51,8.56,50.34,12.54,23.52,5.57,47.1,10.91,70.69,16.15,3.11.69,4.06,1.86,4,4.97-.19,9.26-.07,18.52-.07,27.78h.02Z"/>
</svg>